#!OML:ASF H:\Terrain\Patient Classification 1\Walking\liu\liu.ASF
:FULLY-SPECIFIED
:DEGREES
48
root 8.39311 16.3413 -26.3543 6.84903 -2.4062 -6.18743
lowerback -4.18687 2.28788 2.87159
upperback -0.0332538 2.81695 4.0604
thorax 2.24703 1.41674 2.74473
lowerneck -22.5287 -4.73926 -13.5949
upperneck 18.6851 -5.47876 14.4781
head 10.5215 -1.82833 6.69262
rclavicle 4.19933e-014 2.06736e-014
rhumerus -23.6952 17.3035 -82.4473
rradius 36.2487
rwrist -15.0696
rhand -31.6447 -27.6952
rfingers 7.12502
rthumb -4.90565 -57.6184
lclavicle 4.19933e-014 2.06736e-014
lhumerus -47.6704 -2.66289 86.1854
lradius 21.8851
lwrist -3.24709
lhand -7.45586 -21.5463
lfingers 7.12502
lthumb 18.4323 7.60045
rfemur 3.52545 2.0162 32.7482
rtibia 11.2668
rfoot -12.4327 2.86791
rtoes -14.3479
lfemur -36.0301 5.45548 -16.0832
ltibia 20.7103
lfoot -9.32026 14.1861
ltoes -15.3729
49
root 8.40737 16.3474 -26.2034 7.01171 -2.57626 -6.48444
lowerback -4.43841 2.33604 3.16822
upperback -0.00441343 2.84767 4.13397
thorax 2.42809 1.4351 2.67076
lowerneck -22.7192 -4.72091 -13.3498
upperneck 18.7764 -5.45414 14.2041
head 10.568 -1.82315 6.55299
rclavicle 4.01545e-014 -9.54166e-015
rhumerus -23.5858 17.4202 -82.4302
rradius 36.5137
rwrist -15.2065
rhand -31.8527 -26.9654
rfingers 7.12502
rthumb -5.10653 -56.8839
lclavicle 4.01545e-014 -9.54166e-015
lhumerus -47.6218 -2.65739 86.2161
lradius 21.8642
lwrist -3.10059
lhand -7.95079 -21.3426
lfingers 7.12502
lthumb 17.9562 7.84853
rfemur 4.74076 2.03653 32.8905
rtibia 9.62656
rfoot -11.5548 3.00518
rtoes -14.2709
lfemur -35.9598 4.31897 -15.1768
ltibia 18.8391
lfoot -8.93166 15.0222
ltoes -13.5304
50
root 8.42295 16.3521 -26.0557 7.11743 -2.68168 -6.76468
lowerback -4.54603 2.37789 3.56766
upperback -0.0310753 2.87696 4.11077
thorax 2.48142 1.45414 2.43069
lowerneck -22.8495 -4.73768 -13.0686
upperneck 18.8922 -5.50548 13.9416
head 10.624 -1.85102 6.3999
rclavicle -3.60297e-014 -2.78299e-014
rhumerus -23.4933 17.4312 -82.5927
rradius 36.5875
rwrist -15.3192
rhand -32.1278 -26.221
rfingers 7.12502
rthumb -5.37214 -56.1329
lclavicle -3.60297e-014 -2.78299e-014
lhumerus -47.6551 -2.84596 86.2548
lradius 21.9416
lwrist -2.82687
lhand -8.20433 -20.661
lfingers 7.12502
lthumb 17.7122 8.55225
rfemur 6.06109 1.98804 32.9957
rtibia 7.90846
rfoot -10.4429 3.21534
rtoes -14.3437
lfemur -35.8072 2.03838 -13.6789
ltibia 17.2796
lfoot -9.12453 16.7717
ltoes -9.63858
51
root 8.43465 16.3531 -25.9061 7.08619 -2.8834 -6.84882
lowerback -4.5599 2.45527 3.62273
upperback -0.0216772 2.97547 4.11763
thorax 2.49995 1.50392 2.41491
lowerneck -22.2711 -4.61431 -13.4708
upperneck 18.3862 -5.34623 14.4726
head 10.3409 -1.76747 6.67416
rclavicle -4.56708e-014 -3.49861e-014
rhumerus -23.3879 17.3314 -82.6163
rradius 36.5997
rwrist -15.2523
rhand -31.911 -26.2525
rfingers 7.12502
rthumb -5.16284 -56.1696
lclavicle -4.56708e-014 -3.49861e-014
lhumerus -47.6237 -2.65804 86.1386
lradius 21.8899
lwrist -3.00067
lhand -8.12364 -20.8893
lfingers 7.12502
lthumb 17.7899 8.31692
rfemur 7.64147 1.98024 32.93
rtibia 5.97207
rfoot -9.40564 3.32711
rtoes -15.2503
lfemur -35.545 -0.605859 -12.1459
ltibia 16.0859
lfoot -10.035 18.9106
ltoes -9.42435
52
root 8.44736 16.3486 -25.7502 7.15903 -3.09909 -6.8624
lowerback -4.73542 2.52194 3.54369
upperback 0.0227938 3.05322 4.17685
thorax 2.63596 1.54215 2.53634
lowerneck -22.0238 -4.58845 -13.9823
upperneck 18.0024 -5.21559 14.8271
head 10.1642 -1.71371 6.90161
rclavicle -1.76421e-014 1.11319e-014
rhumerus -23.256 17.4887 -82.4902
rradius 36.6994
rwrist -15.3883
rhand -31.7055 -25.6876
rfingers 7.12502
rthumb -4.9644 -55.6094
lclavicle -1.76421e-014 1.11319e-014
lhumerus -47.4246 -2.13314 85.8902
lradius 21.7025
lwrist -3.50899
lhand -7.9284 -21.4476
lfingers 7.12502
lthumb 17.9777 7.7415
rfemur 9.7919 2.0044 32.8158
rtibia 2.64608
rfoot -7.93696 3.23402
rtoes -16.7961
lfemur -35.6012 -2.67647 -10.9897
ltibia 15.3456
lfoot -10.9391 20.6884
ltoes -11.363
53
root 8.46547 16.341 -25.5925 7.21473 -3.30419 -6.8207
lowerback -4.84525 2.57991 3.48391
upperback -0.00845793 3.12667 4.24392
thorax 2.65713 1.57763 2.64906
lowerneck -22.6311 -4.79061 -13.9945
upperneck 18.7246 -5.35317 14.2794
head 10.5374 -1.81998 6.70801
rclavicle -1.83379e-014 -1.43125e-014
rhumerus -23.4587 17.798 -82.3812
rradius 36.932
rwrist -15.7129
rhand -32.1045 -25.4733
rfingers 7.12502
rthumb -5.3496 -55.3857
lclavicle -1.83379e-014 -1.43125e-014
lhumerus -47.3593 -1.93047 86.0088
lradius 21.6418
lwrist -3.50985
lhand -7.64909 -21.568
lfingers 7.12502
lthumb 18.2465 7.59617
rfemur 11.6314 2.01543 32.6085
rtibia -2.8625e-014
rfoot -6.39448 3.22229
rtoes -17.38
lfemur -35.7509 -4.3201 -10.1832
ltibia 15.011
lfoot -11.752 22.1924
ltoes -11.2893
54
root 8.48324 16.3432 -25.4339 7.05731 -3.57485 -6.80748
lowerback -4.75921 2.6372 3.48163
upperback -0.160003 3.21717 4.23777
thorax 2.45068 1.62162 2.63993
lowerneck -23.0976 -4.80297 -12.9688
upperneck 19.9631 -5.44044 12.921
head 11.0086 -1.92687 6.0454
rclavicle 2.78299e-015 2.70347e-014
rhumerus -24.1324 17.9096 -82.607
rradius 37.2249
rwrist -15.7937
rhand -32.1703 -25.8238
rfingers 7.12502
rthumb -5.41317 -55.7346
lclavicle 2.78299e-015 2.70347e-014
lhumerus -47.7379 -1.97509 86.1445
lradius 21.7114
lwrist -3.27767
lhand -7.83838 -21.3917
lfingers 7.12502
lthumb 18.0643 7.78948
rfemur 12.461 2.05032 32.3809
rtibia 1.90833e-014
rfoot -5.7566 3.51282
rtoes -16.0825
lfemur -35.5958 -4.33177 -10.2277
ltibia 14.945
lfoot -12.3197 22.0804
ltoes -12.4032
55
root 8.49939 16.3423 -25.27 6.9284 -3.82363 -7.00855
lowerback -4.77082 2.69164 3.7029
upperback 0.154879 3.26004 4.18144
thorax 2.79784 1.64806 2.47451
lowerneck -26.3958 -4.86432 -10.6289
upperneck 22.2574 -5.52821 10.3787
head 12.3461 -2.00017 4.73768
rclavicle 1.49089e-014 3.33958e-014
rhumerus -23.5573 17.7431 -82.7193
rradius 37.1839
rwrist -15.6625
rhand -31.8514 -25.8064
rfingers 7.12502
rthumb -5.10523 -55.7249
lclavicle 1.49089e-014 3.33958e-014
lhumerus -47.0106 -1.55644 85.7044
lradius 21.5664
lwrist -3.56351
lhand -8.29587 -21.3473
lfingers 7.12502
lthumb 17.6241 7.87388
rfemur 13.3001 2.09364 32.3832
rtibia 3.18055e-015
rfoot -5.60289 3.76745
rtoes -16.5506
lfemur -35.3566 -4.31675 -10.0453
ltibia 14.9603
lfoot -12.829 21.965
ltoes -6.93551
56
root 8.51685 16.3232 -25.104 6.89138 -4.00053 -7.20132
lowerback -4.76087 2.66538 3.82839
upperback 0.202478 3.21386 4.24049
thorax 2.84589 1.62664 2.46395
lowerneck -22.3874 -4.43657 -14.0668
upperneck 18.1764 -5.00237 15.0768
head 10.2678 -1.58159 7.05911
rclavicle 1.06847e-014 -3.65764e-014
rhumerus -23.5176 18.0712 -82.8958
rradius 37.1264
rwrist -15.8743
rhand -31.6115 -25.4121
rfingers 7.12502
rthumb -4.87358 -55.3361
lclavicle 1.06847e-014 -3.65764e-014
lhumerus -46.817 -0.871876 85.3306
lradius 21.5303
lwrist -3.7463
lhand -8.25823 -21.5504
lfingers 7.12502
lthumb 17.6604 7.66757
rfemur 13.9433 2.08426 32.4002
rtibia -4.45278e-014
rfoot -5.46223 4.00048
rtoes -17.9439
lfemur -35.1614 -4.3881 -9.92575
ltibia 15.0089
lfoot -12.7358 21.9854
ltoes -6.25819
